<svg xmlns="http://www.w3.org/2000/svg" width="535.444" height="139.748" viewBox="0 0 535.444 139.748">
  <path id="Path_43806" data-name="Path 43806" d="M-164.84-26.52c5.252-.156,5.3-3.536,5.3-8.112,0-3.12-.1-6.916-4.94-7.072-2.7-.1-6.812-.156-10.712-.156-3.38,0-6.552.052-8.632.156-5.044.208-5.46,2.7-5.46,7.488,0,4.888.26,7.644,5.616,7.7,3.276.052,6.708.1,10.192.1C-170.612-26.416-167.752-26.468-164.84-26.52Zm-7.644,12.74c3.224-.052,5.772-.1,8.216-.1h1.664a.711.711,0,0,1,.78.676,16.334,16.334,0,0,1-2.912,5.876,19.6,19.6,0,0,1-3.848-5.2,1.537,1.537,0,0,0-1.4-.832,2.445,2.445,0,0,0-2.5,2.08c0,1.04,2.132,4.316,4.732,6.916a19.591,19.591,0,0,1-5.2,2.808A1.987,1.987,0,0,0-174.408.364a2.307,2.307,0,0,0,2.288,2.288c1.2,0,4.68-1.664,7.592-4.16,2.652,1.976,7.228,4.42,9.412,4.42a2.561,2.561,0,0,0,2.6-2.548,2.168,2.168,0,0,0-1.716-2.08,24.42,24.42,0,0,1-7.176-3.016c.26-.312,4.68-5.928,4.68-9.672,0-1.664-.832-3.224-3.484-3.328-2.132-.1-4.16-.1-6.136-.1-2.028,0-4.056,0-6.188.052A1.892,1.892,0,0,0-174.3-15.7a1.786,1.786,0,0,0,1.768,1.924Zm18.46-6.4A1.975,1.975,0,0,0-152-22.256a1.975,1.975,0,0,0-2.028-2.08h-41.288a2.085,2.085,0,0,0-2.132,2.184,1.953,1.953,0,0,0,2.132,1.976h4.732V-4.16c-1.716.364-3.38.728-4.888.936a2.105,2.105,0,0,0-1.872,2.132,2.129,2.129,0,0,0,2.184,2.184c2.028,0,11.6-2.964,15.6-4.264V1.456a2.042,2.042,0,0,0,2.132,2.132,2.015,2.015,0,0,0,2.132-2.132V-20.176ZM-184.7-35.62v-.572c0-1.04.52-1.872,2.288-1.924,1.716-.052,5.1-.1,8.528-.1,2.808,0,5.616.052,7.54.1,1.612.052,2.028.52,2.132,1.768,0,.208.052.468.052.728Zm20.54,3.224c0,.26-.052.52-.052.78-.052,1.248-.884,1.716-2.132,1.716-2.236.052-4.68.052-7.072.052-3.224,0-6.448,0-8.944-.052-1.612,0-2.236-.312-2.34-1.664,0-.26-.052-.52-.052-.832Zm-15.392,14.82h-6.76v-2.6h6.76Zm0,5.668h-6.76v-2.548h6.76Zm0,4.94c-1.82.52-4.264,1.144-6.76,1.768V-8.736h6.76Zm82.576-5.3A1.878,1.878,0,0,0-95-14.248a1.878,1.878,0,0,0-1.976-1.976l-9,.052c.26-.364,1.456-2.028,1.456-2.808a2.573,2.573,0,0,0-2.652-2.288,2.1,2.1,0,0,0-2.028,1.456,28.13,28.13,0,0,1-1.664,3.692h-3.328v-5.408H-96.98A1.878,1.878,0,0,0-95-23.5,1.878,1.878,0,0,0-96.98-25.48l-17.212.1v-2.34l11.7.052a1.733,1.733,0,0,0,1.82-1.768,1.745,1.745,0,0,0-1.82-1.82l-11.7.052v-2.236l14.456.052a1.857,1.857,0,0,0,1.976-1.872,1.868,1.868,0,0,0-1.976-1.924h-8.528c1.352-1.872,1.82-2.652,1.82-3.432a2.624,2.624,0,0,0-2.7-2.288,2.184,2.184,0,0,0-2.132,1.456,27.8,27.8,0,0,1-1.976,4.264l-3.224.052h-2.6c-1.3-2.6-3.64-5.3-5.46-5.3-1.2,0-2.5.936-2.5,1.976a1.533,1.533,0,0,0,.52,1.092c.676.728,1.352,1.4,1.976,2.184h-8.684a1.868,1.868,0,0,0-1.976,1.924,1.857,1.857,0,0,0,1.976,1.872l14.352-.052V-31.2l-11.6-.052a1.759,1.759,0,0,0-1.872,1.82,1.747,1.747,0,0,0,1.872,1.768l11.6-.052v2.34l-17-.1a1.937,1.937,0,0,0-2.08,1.976,1.937,1.937,0,0,0,2.08,1.976h17v5.408h-2.912c-.52-.988-2.6-4.784-4.524-4.784-1.2,0-2.5.936-2.5,1.976a1.567,1.567,0,0,0,.468,1.04c.52.572,1.04,1.144,1.508,1.716l-9.048-.052a1.937,1.937,0,0,0-2.08,1.976,1.937,1.937,0,0,0,2.08,1.976Zm-4.42,5.824c-.156-1.82-2.184-3.536-5.1-3.64-2.808-.052-5.824-.1-8.84-.1-3.692,0-7.384.052-10.712.1-5.356.156-5.408,3.38-5.408,6.032,0,2.912.052,6.188,5.512,6.344,2.912.1,6.136.1,9.412.1s6.6,0,9.776-.1c3.224-.1,5.148-1.976,5.356-4.16a17.621,17.621,0,0,0,.1-2.34A15.365,15.365,0,0,0-101.4-6.448Zm-4.94,3.38c-.26,1.352-.624,1.352-9.308,1.352-10.5,0-10.92,0-10.972-1.352,0-.26-.052-.572-.052-.884,0-1.4.156-2.132,2.132-2.184,2.392-.052,5.2-.1,8.008-.1,9.62,0,9.984,0,10.192,1.352a5.347,5.347,0,0,1,.052.936A4.758,4.758,0,0,1-106.34-3.068ZM-52.884-15.08c2.028-.832,4.264-1.664,6.448-2.34,2.7-.832,4.42-1.04,6.032-1.716A2.149,2.149,0,0,0-39-21.164a2.768,2.768,0,0,0-2.912-2.7c-.884,0-5.46,1.4-12.012,4.212-1.352-3.276-3.692-4.888-6.552-4.888a55.929,55.929,0,0,0,2.964-5.2c5.408-1.3,6.76-2.34,6.76-4.056a2.264,2.264,0,0,0-2.236-2.288c-.364,0-.572.052-2.132.832a9.919,9.919,0,0,0,.312-1.924c0-1.352-1.456-2.288-2.808-2.288a2.043,2.043,0,0,0-2.184,1.82,20.018,20.018,0,0,1-.936,4.108,20.09,20.09,0,0,1-4.108.572,3.524,3.524,0,0,1-1.924-.416,3.308,3.308,0,0,0-1.872-.676,2.21,2.21,0,0,0-2.132,2.288c0,.416.052,3.328,5.3,3.328a15.247,15.247,0,0,0,2.548-.208,27.137,27.137,0,0,1-6.656,7.9,2.837,2.837,0,0,0-1.2,2.132,2.076,2.076,0,0,0,2.236,1.976c1.144,0,2.444-.728,4.628-3.172a5.127,5.127,0,0,1,2.7-.936c1.4,0,2.444,1.04,3.068,3.068-2.7,1.4-10.088,5.356-10.088,11.7,0,3.8,3.12,8.268,11.648,8.268,8.892,0,9.308-2.652,9.308-3.744a2.51,2.51,0,0,0-2.7-2.444,4.2,4.2,0,0,0-1.3.208A24.151,24.151,0,0,1-57.824-2.6c-5.3,0-5.72-3.068-5.72-3.952,0-3.276,4.836-5.824,5.928-6.4a28.3,28.3,0,0,1-.208,3.484V-9a2.171,2.171,0,0,0,2.132,2.444c1.248,0,2.652-1.092,2.808-3.172a27.755,27.755,0,0,0,.1-2.86A19.223,19.223,0,0,0-52.884-15.08Zm63.6-10.764c3.9-.1,5.668-2.392,5.772-5.3,0-.624.052-1.352.052-2.132,0-1.04-.052-2.132-.1-2.808-.156-2.6-1.924-4.576-5.564-4.68-3.692-.1-7.488-.156-11.18-.156-3.224,0-6.4.052-9.412.156-3.328.1-5.408,2.08-5.408,5.408v.26c.052,1.924.1,3.848.1,5.72,0,8.892-.936,17.16-6.864,24.648a1.914,1.914,0,0,0-.468,1.3A2.866,2.866,0,0,0-19.4-.936a2.569,2.569,0,0,0,2.08-.988c5.1-6.292,6.76-15.288,7.228-23.816h4.576c3.744,0,7.7,0,11.44-.052C8.216-13.364,16.068-2.184,19.6-2.184A3.372,3.372,0,0,0,22.828-5.3a2.519,2.519,0,0,0-1.144-2.028c-5.46-3.9-9.2-9.984-11.024-18.512ZM4.576-10.868a2.661,2.661,0,0,0,2.5-2.756,2.957,2.957,0,0,0-1.2-2.288c-2.5-1.976-8.528-4.264-10.452-4.264a2.387,2.387,0,0,0-2.6,2.236,2,2,0,0,0,1.612,1.924A24.819,24.819,0,0,1,2.86-11.6,2.589,2.589,0,0,0,4.576-10.868Zm2.6,14.092a2.5,2.5,0,0,0,2.5-2.5,3.325,3.325,0,0,0-1.56-2.652c-4.836-3.484-13.884-6.5-16.328-6.5a2.608,2.608,0,0,0-2.7,2.444A2.053,2.053,0,0,0-9.152-4,43.622,43.622,0,0,1,5.356,2.6,2.961,2.961,0,0,0,7.176,3.224ZM-9.984-34.112A1.949,1.949,0,0,1-7.956-36.3c2.34-.1,5.148-.156,8.008-.156,3.276,0,6.708.052,9.568.156,1.56.052,1.872.728,1.872,2.808,0,1.508-.052,2.964-2.132,3.068-3.328.156-7.9.208-12.48.208-2.34,0-4.68-.052-6.864-.052ZM66.872-.052a4.122,4.122,0,0,0-.26-1.3c-2.392-5.928-6.5-9.828-11.8-16.692A4.484,4.484,0,0,1,53.56-20.7a2.972,2.972,0,0,1,.832-1.924c2.756-3.328,8.58-9.828,10.66-13.156a2.84,2.84,0,0,0,.468-1.508,3.333,3.333,0,0,0-3.276-3.068A2.462,2.462,0,0,0,60.06-39c-2.444,4.368-6.76,9.88-9.724,13.676a7.923,7.923,0,0,0-2.028,4.836c0,1.716.884,3.432,2.444,5.46C54.392-10.3,58.448-5.2,61.2,1.352a2.6,2.6,0,0,0,2.444,1.716A3.252,3.252,0,0,0,66.872-.052Zm63.8-1.352a3.579,3.579,0,0,0,2.548-3.276,2.444,2.444,0,0,0-2.548-2.5,4.156,4.156,0,0,0-1.612.364,35.75,35.75,0,0,1-12.428,2.7c-5.148,0-5.356-2.6-5.356-6.864,0-6.968,1.092-15.132,1.092-21.528q0-2.028-.156-3.744a2.823,2.823,0,0,0-2.912-2.5,2.562,2.562,0,0,0-2.7,2.6c0,.156.052.364.052.52a49.2,49.2,0,0,1,.312,5.928c0,6.136-.624,13.676-.624,19.6,0,5.148.416,11.18,10.816,11.18A40.527,40.527,0,0,0,130.676-1.4Zm30.576,5.252A2.874,2.874,0,0,0,164.06.988c0-3.536-8.32-8.112-10.14-8.112a2.314,2.314,0,0,0-2.444,2.288,2.339,2.339,0,0,0,1.4,2.08,19.848,19.848,0,0,1,6.4,5.46A2.367,2.367,0,0,0,161.252,3.848ZM-252.2,66.48c5.252-.156,5.3-3.536,5.3-8.112,0-3.12-.1-6.916-4.94-7.072-2.7-.1-6.812-.156-10.712-.156-3.38,0-6.552.052-8.632.156-5.044.208-5.46,2.7-5.46,7.488,0,4.888.26,7.644,5.616,7.7,3.276.052,6.708.1,10.192.1C-257.972,66.584-255.112,66.532-252.2,66.48Zm-7.644,12.74c3.224-.052,5.772-.1,8.216-.1h1.664a.711.711,0,0,1,.78.676,16.334,16.334,0,0,1-2.912,5.876,19.6,19.6,0,0,1-3.848-5.2,1.537,1.537,0,0,0-1.4-.832,2.445,2.445,0,0,0-2.5,2.08c0,1.04,2.132,4.316,4.732,6.916a19.592,19.592,0,0,1-5.2,2.808,1.987,1.987,0,0,0-1.456,1.924,2.307,2.307,0,0,0,2.288,2.288c1.2,0,4.68-1.664,7.592-4.16,2.652,1.976,7.228,4.42,9.412,4.42a2.561,2.561,0,0,0,2.6-2.548,2.168,2.168,0,0,0-1.716-2.08,24.419,24.419,0,0,1-7.176-3.016c.26-.312,4.68-5.928,4.68-9.672,0-1.664-.832-3.224-3.484-3.328-2.132-.1-4.16-.1-6.136-.1-2.028,0-4.056,0-6.188.052a1.892,1.892,0,0,0-1.768,2.08A1.786,1.786,0,0,0-259.9,79.22Zm18.46-6.4a1.975,1.975,0,0,0,2.028-2.08,1.975,1.975,0,0,0-2.028-2.08h-41.288a2.085,2.085,0,0,0-2.132,2.184,1.953,1.953,0,0,0,2.132,1.976h4.732V88.84c-1.716.364-3.38.728-4.888.936a2.105,2.105,0,0,0-1.872,2.132,2.129,2.129,0,0,0,2.184,2.184c2.028,0,11.6-2.964,15.6-4.264v4.628a2.042,2.042,0,0,0,2.132,2.132,2.015,2.015,0,0,0,2.132-2.132V72.824Zm-30.68-15.444v-.572c0-1.04.52-1.872,2.288-1.924,1.716-.052,5.1-.1,8.528-.1,2.808,0,5.616.052,7.54.1,1.612.052,2.028.52,2.132,1.768,0,.208.052.468.052.728Zm20.54,3.224c0,.26-.052.52-.052.78-.052,1.248-.884,1.716-2.132,1.716-2.236.052-4.68.052-7.072.052-3.224,0-6.448,0-8.944-.052-1.612,0-2.236-.312-2.34-1.664,0-.26-.052-.52-.052-.832Zm-15.392,14.82h-6.76v-2.6h6.76Zm0,5.668h-6.76V78.544h6.76Zm0,4.94c-1.82.52-4.264,1.144-6.76,1.768V84.264h6.76Zm81.8-25.844a1.989,1.989,0,0,0,2.028-2.132,1.975,1.975,0,0,0-2.028-2.08h-15.912V52.648a2.562,2.562,0,0,0-2.7-2.6,2.562,2.562,0,0,0-2.7,2.6v3.328H-222.4a2.093,2.093,0,0,0-2.236,2.08,2.1,2.1,0,0,0,2.236,2.132Zm-5.616,6.656c0-4.524-1.248-4.628-11.284-4.628-3.328,0-6.76.052-9.62.1-4.472.052-4.94,1.508-4.94,4.94,0,3.536,1.144,4.628,5.252,4.68,2.808.052,6.448.1,9.828.1C-191.88,72.044-190.736,71.836-190.736,66.844Zm1.456,23.036c0,1.508-.936,1.924-2.34,1.924a15.667,15.667,0,0,1-2.5-.26,1.769,1.769,0,0,0-.52-.052,2.3,2.3,0,0,0-2.34,2.34c0,1.768,1.3,2.548,5.356,2.548,5.408,0,7.488-2.652,7.488-5.512v-.156c-.052-1.4-.052-3.9-.052-4.524,0-1.456,0-4.42-.156-7.176-.156-2.808-2.444-4.836-6.032-4.888-4.42-.052-9.2-.1-13.884-.1s-9.2.052-13.156.1c-3.744.052-6.032,2.132-6.084,4.992-.052,2.34-.052,5.1-.052,7.8,0,2.756,0,5.46.052,7.748a2.364,2.364,0,0,0,2.6,2.184,2.18,2.18,0,0,0,2.444-2.08v-.1c-.052-1.976-.052-4.524-.052-7.124s0-5.2.052-7.28a2.247,2.247,0,0,1,2.288-2.132c3.38-.1,7.488-.1,11.752-.1,4.316,0,8.736,0,12.688.1a2.243,2.243,0,0,1,2.392,2.132c.1,1.4.1,3.224.1,4.888C-189.228,87.7-189.28,89.88-189.28,89.88Zm-20.8-9.412c-4.16.156-4.212,2.548-4.212,4.888,0,4.316.416,5.408,9.2,5.408,10.452,0,11.752-.468,11.752-5.512,0-4.888-1.716-4.888-10.66-4.888C-206.18,80.364-208.364,80.364-210.08,80.468Zm14.508-13.416c0,1.508,0,1.56-7.28,1.56-9,0-9,0-9-1.56,0-1.04.312-1.352,1.716-1.352,2.132-.052,4.368-.052,6.552-.052s4.368,0,6.292.052C-195.572,65.7-195.572,66.22-195.572,67.052Zm-2.652,18.408c0,1.872,0,1.872-5.668,1.872-5.3,0-5.668-.052-5.668-1.82,0-1.612.728-1.768,1.352-1.82,1.092-.052,2.7-.1,4.316-.1C-198.224,83.588-198.224,83.588-198.224,85.46Zm51.324,2.548c-1.976.364-2.86,1.456-2.86,2.6a2.734,2.734,0,0,0,2.964,2.548c.728,0,14.872-1.612,19.448-13.156a15.939,15.939,0,0,0,1.144-5.876c0-8.112-6.552-15.08-17.056-15.08-11.7,0-20.956,9.568-20.956,18.98,0,5.668,3.328,9.828,7.02,9.828a5.64,5.64,0,0,0,3.9-1.768c5.72-5.616,11.076-15.08,11.076-20.54v-.26a2.351,2.351,0,0,0-1.456-2.184h.1c7.54,0,12.064,4.94,12.064,10.712C-131.508,80.624-137.436,86.448-146.9,88.008Zm-.624-22.412c-.208,7.02-6.708,14.716-8.268,16.12a1.377,1.377,0,0,1-.988.416c-.156,0-2.756-.468-2.756-4.368,0-6.188,6.5-13.1,13-14.4A2.689,2.689,0,0,0-147.524,65.6Zm81.068-2.652a5.459,5.459,0,0,0-5.46-5.46,5.415,5.415,0,0,0-5.408,5.46,5.371,5.371,0,0,0,5.408,5.408A5.415,5.415,0,0,0-66.456,62.944ZM-68.432,84.16a3.291,3.291,0,0,0,1.4-4.212c-2.34-5.3-10.14-10.764-13.78-12.844-3.588-2.028-6.24,2.288-3.38,3.848,3.848,2.132,9.568,7.384,11.908,11.96A2.724,2.724,0,0,0-68.432,84.16Zm-37.8,2.08c4.992-2.08,13.312-9.152,15.028-15.6.988-3.8-4.576-4.732-5.3-1.56C-97.656,74.02-104,79.324-108.42,81.04-112.372,82.548-110.188,87.9-106.236,86.24Zm36.972-23.3a2.619,2.619,0,0,1-2.652,2.6,2.575,2.575,0,0,1-2.6-2.6,2.619,2.619,0,0,1,2.6-2.652A2.663,2.663,0,0,1-69.264,62.944Zm55.64,12.844c2.236,0,3.328-1.352,3.328-2.7,0-1.3-1.092-2.652-3.172-2.652h-.1c-9.152.26-20.28.884-24.544.884-2.08,0-4.368-.052-6.292-.156h-.312c-2.08,0-3.12,1.248-3.12,2.548a2.876,2.876,0,0,0,3.016,2.808c.572,0,1.04.052,1.664.052,1.04,0,2.444-.052,5.148-.156,4.108-.156,11.7-.624,21.632-.624h2.7Zm41.7-2.132c2.652.364,7.28,1.976,9.308,3.9,2.7,2.548,6.292-1.612,3.848-4.264-2.808-3.016-9.672-4.472-12.272-4.732a2.519,2.519,0,0,0-.884,0c0-3.484,0-6.5.052-8.58a18.306,18.306,0,0,0-.208-4.628c-.468-3.588-6.448-2.86-5.512.832a23.345,23.345,0,0,1,.468,4.368c.208,7.54.1,23.92-.208,32.4-.1,2.34,1.4,3.328,2.86,3.172s2.86-1.508,2.808-3.952C28.236,87.54,28.132,80.364,28.08,73.656ZM91.728,71.42c.728-.052,1.456-.052,2.184-.052,3.068-.052,5.928,0,9.256.156,2.34.1,3.8-1.092,4-2.548s-.884-3.068-3.328-3.016c-3.016.1-6.344.364-9.516.468q-1.248.078-2.652.156c0-1.612.052-2.808-.052-5.148a13.432,13.432,0,0,0-.78-4.68c-1.924-3.64-6.968-1.248-5.46,1.768a9.3,9.3,0,0,1,.884,3.484c.156,1.612.1,3.016.1,4.94-3.9.312-7.748.728-10.14.988-1.612.156-3.536.208-5.148.208-4.108-.052-3.8,5.252-.26,5.148,1.768-.052,3.744-.312,5.408-.468,2.6-.26,6.292-.728,10.14-1.04-.312,7.644-4.888,14.768-13.988,18.2-3.432,1.3-1.924,6.5,2.5,4.732C85.7,90.348,91.624,81.352,91.728,71.42ZM161.1,75.788c2.236,0,3.328-1.352,3.328-2.7,0-1.3-1.092-2.652-3.172-2.652h-.1c-9.152.26-20.28.884-24.544.884-2.08,0-4.368-.052-6.292-.156H130c-2.08,0-3.12,1.248-3.12,2.548a2.876,2.876,0,0,0,3.016,2.808c.572,0,1.04.052,1.664.052,1.04,0,2.444-.052,5.148-.156,4.108-.156,11.7-.624,21.632-.624h2.7Zm65.572,11.8a2.534,2.534,0,0,0-1.248-2.236c-6.968-4.16-14.508-11.336-20.852-16.484-2.08-1.716-4-2.7-6.136-2.7a9.959,9.959,0,0,0-5.252,1.82c-2.756,1.716-6.188,3.64-7.54,4.264a2.863,2.863,0,0,0-1.976,2.548,2.977,2.977,0,0,0,3.016,2.756,3.9,3.9,0,0,0,1.612-.416c2.808-1.456,4.836-3.328,7.436-5.1a4.661,4.661,0,0,1,2.652-1.092c.936,0,1.872.468,3.172,1.612C207.22,77.348,215.7,86.812,221.728,90.3a3.556,3.556,0,0,0,1.716.468A3.079,3.079,0,0,0,226.668,87.592ZM250.64,90.92a5.928,5.928,0,1,0-5.928,5.928A5.925,5.925,0,0,0,250.64,90.92Zm-1.976,0a3.952,3.952,0,1,1-7.9,0,3.952,3.952,0,0,1,7.9,0Z" transform="translate(284.804 42.9)"/>
</svg>
