<svg xmlns="http://www.w3.org/2000/svg" width="545" height="147" viewBox="0 0 545 147">
  <g id="Group_12244" data-name="Group 12244" transform="translate(-1131.628 -505.785)">
    <g id="Group_12244-2" data-name="Group 12244" transform="translate(1225.043 505.785)" style="isolation: isolate">
      <path id="Path_43933" data-name="Path 43933" d="M1294.177,530.335H1269.16V552.2a30.429,30.429,0,0,0,9.735-5,27.505,27.505,0,0,1-5.384-9.953h-2.447v-3.916h16.261c.326,0,.489-.381.815-.381.435,0,3.59,2.285,3.59,2.719,0,.381-.544.6-1.143.653a28.584,28.584,0,0,1-5.275,10.6,28.514,28.514,0,0,0,10.605,4.188s-3.97,2.611-5,4.025c-.055.109-.109.109-.218.109a25.789,25.789,0,0,1-8.539-4.895,25.023,25.023,0,0,1-8.647,5.384.284.284,0,0,1-.217-.109c-.652-.871-3.046-2.285-4.134-2.937v3.154h-4.623V548.88a148.777,148.777,0,0,1-16.044,3.59v.272c0,.979-.326,1.414-.652,1.414a.882.882,0,0,1-.652-.545c-.761-1.468-2.066-5.112-2.066-5.112,2.284-.217,4.514-.544,6.58-.87v-17.3h-6.092v-4.242h48.567Zm-7.723-5.928h-5v-1.033h-23.114v1.2h-5V508.363h33.121Zm-30.075,5.928v2.937h8.158v-2.937Zm0,6.146v2.992h8.158v-2.992Zm0,6.255v4.078c3.481-.652,6.363-1.3,8.158-1.794v-2.284Zm1.958-30.837v2.5H1281.4v-2.5Zm0,5.656v2.5h23.114l-.055-2.5Zm19.851,19.687a17.109,17.109,0,0,0,3.807,6.8,19.868,19.868,0,0,0,3.372-6.8Z" transform="translate(-1245.122 -506.242)"/>
      <path id="Path_43934" data-name="Path 43934" d="M1368.033,515.575h-18.709v3.154h17.022v3.753h-17.022v3.426h20.938v4.078h-20.938v4.623h4.568a22.983,22.983,0,0,0,2.012-4.242,40.059,40.059,0,0,1,5.547,1.251c.544.217.816.435.816.707,0,.381-.653.762-1.74.762h-.163c-.055.109-.436.707-.98,1.522h10.878v4.134h-46.881v-4.134h10.931c-1.033-1.577-2.066-2.828-2.229-3.046l4.95-1.3s1.523,2.121,2.828,4.351h4.3v-4.623h-20.72v-4.078h20.72v-3.426H1327.3v-3.753h16.859v-3.154h-18.546V511.55h11.53a37.512,37.512,0,0,0-3.1-4.134l5-1.414s2.013,2.773,3.644,5.548h8.213a27.033,27.033,0,0,0,3.154-5.765s3.643,1.142,5.439,1.85c.6.217.815.489.815.761,0,.327-.435.6-1.251.6a2.643,2.643,0,0,1-.652-.054c-.109.163-.816,1.306-1.741,2.611h11.367ZM1363.464,555l-5.221.054v-2.12H1335.4v2.338h-5.167V541.408l33.23.054Zm-28.063-9.735v3.59h22.841v-3.59Z" transform="translate(-1258.993 -505.785)"/>
      <path id="Path_43935" data-name="Path 43935" d="M1428.092,517.115c-4.785.979-8.973,1.741-12.454,2.23a57.919,57.919,0,0,1-4.459,6.526c-.109.109-.109.163-.054.163a.469.469,0,0,0,.327-.163,10.773,10.773,0,0,1,6.688-2.23c3.1.054,5.331,2.067,6.364,5.33,5.058-2.23,10.006-3.971,12.834-5.167l3.862,4.677a.723.723,0,0,1,.163.381c0,.217-.326.272-.707.326a66.691,66.691,0,0,0-15.608,4.95c-.109,2.447-.326,6.906-.381,9.136l-5.33.49c.055-1.8.218-4.732.327-7.071-2.611,1.469-6.853,4.188-6.853,7.288,0,1.306.6,4.459,8.593,4.459,3.644,0,8.429-1.033,13-2.338a51.281,51.281,0,0,0-1.033,5.928c0,.272-.109.326-.326.381a50.148,50.148,0,0,1-11.422,1.359c-8.429,0-14.086-3.535-14.086-9.463,0-5.112,5-9.354,12.182-13.106-.271-2.61-1.3-3.643-3.371-3.643-3.7,0-9.138,5.765-12.074,10.387l-5.221-1.686c-.271-.055-.381-.163-.381-.272a.726.726,0,0,1,.164-.381c1.413-1.577,3.48-3.753,4.677-5.33a97.327,97.327,0,0,0,6.527-10.224c-.708.053-1.359.108-1.958.108-.6.055-1.2.055-1.74.055a11.885,11.885,0,0,1-5.276-.979l-.544-5v-.163c0-.163.054-.218.164-.218a1.4,1.4,0,0,1,.38.109,15.821,15.821,0,0,0,6.961,1.414c1.142,0,2.5-.109,4.079-.272a54.007,54.007,0,0,0,2.284-7.07s6.8.815,6.8,1.849c0,.435-.652.762-1.8.816-.381.924-.978,2.284-1.577,3.59,3.154-.544,6.635-1.36,10.442-2.393Z" transform="translate(-1272.337 -506.183)"/>
      <path id="Path_43936" data-name="Path 43936" d="M1507.6,527.586h-5.167v-1.469h-2.23a38.452,38.452,0,0,0,15.173,20.776s-4.459,1.469-5.819,2.828a.411.411,0,0,1-.217.109c-.109,0-10.387-8.376-14.3-23.712h-16.914c-.38,8.593-2.121,17.675-8.43,24.637-.108.109-.163.163-.271.163a.2.2,0,0,1-.163-.054c-1.687-1.088-5.875-1.794-5.875-1.794,7.886-7.668,9.627-14.793,9.627-27.029,0-3.644-.218-10.823-.273-12.619H1507.6Zm-8.376,28.607a94.019,94.019,0,0,0-22.406-9.246l3.209-4.242a125.1,125.1,0,0,1,22.243,8.647Zm-21.21-42.1.109,3.971c.054,1.087.054,2.174.054,3.317h24.256V514.1Zm17.838,27.411a83.085,83.085,0,0,0-16.1-6.472l2.828-4.133c4.569,1.414,11.367,3.535,16.208,5.983Z" transform="translate(-1283.807 -506.429)"/>
      <path id="Path_43937" data-name="Path 43937" d="M1563.32,554.388c-.109,0-.164.054-.218.054s-.108-.054-.217-.217c-4.079-7.124-11.041-13.65-17.131-19.633a7.012,7.012,0,0,1-2.392-5.057,8.087,8.087,0,0,1,2.664-5.6c5.221-5.275,12.455-9.9,16.7-15.88.109-.164.218-.218.272-.218.218,0,5.765,4.732,5.765,5.929,0,.272-.218.434-.544.434a2.83,2.83,0,0,1-1.143-.326c-4.514,3.916-11.747,8.756-15.663,12.508-1.3,1.251-1.957,2.284-1.957,3.264s.708,1.957,1.957,3.1c5.657,4.949,14.793,12.889,18.492,19.144Z" transform="translate(-1297.983 -506.148)"/>
      <path id="Path_43938" data-name="Path 43938" d="M1606.524,538.857c0,4.514.381,9.409,7.234,9.409,9.082,0,16.913-9.3,19.415-12.944a47.155,47.155,0,0,0,2.176,6.8.792.792,0,0,1,.109.327.5.5,0,0,1-.164.272c-3.046,3.643-11.692,11.366-21.754,11.366-12.618,0-12.671-10.5-12.671-15.391,0-7.124.978-15.01.978-23.059,0-1.414-.053-2.883-.109-4.3,1.577.055,5.6.381,7.07.652.762.109,1.088.436,1.088.763,0,.489-.707.978-1.74,1.2C1607.774,522.6,1606.524,532.385,1606.524,538.857Z" transform="translate(-1308.176 -506.769)"/>
      <path id="Path_43939" data-name="Path 43939" d="M1672.4,563.241a51.866,51.866,0,0,0-11.585-10.823l3.861-3.535a65.683,65.683,0,0,1,12.291,9.572Z" transform="translate(-1318.801 -513.424)"/>
    </g>
    <g id="Group_12245" data-name="Group 12245" transform="translate(1131.628 603.24)" style="isolation: isolate">
      <path id="Path_43940" data-name="Path 43940" d="M1180.683,648.551h-25.017v21.862a30.406,30.406,0,0,0,9.735-5,27.529,27.529,0,0,1-5.384-9.952h-2.447v-3.915h16.261c.327,0,.49-.381.816-.381.434,0,3.589,2.284,3.589,2.719,0,.381-.544.6-1.142.653a28.617,28.617,0,0,1-5.276,10.6,28.516,28.516,0,0,0,10.605,4.188s-3.97,2.611-5,4.025c-.055.109-.108.109-.218.109a25.792,25.792,0,0,1-8.539-4.9,25.019,25.019,0,0,1-8.647,5.384.282.282,0,0,1-.217-.109c-.652-.87-3.046-2.284-4.134-2.936v3.154h-4.622V667.1A148.609,148.609,0,0,1,1135,670.686v.272c0,.979-.326,1.414-.653,1.414a.88.88,0,0,1-.653-.544c-.761-1.468-2.067-5.112-2.067-5.112,2.285-.217,4.514-.544,6.58-.87v-17.3h-6.091v-4.242h48.566Zm-7.721-5.928h-5v-1.033h-23.114v1.2h-5V626.579h33.121Zm-30.076,5.928v2.937h8.158v-2.937Zm0,6.146v2.991h8.158V654.7Zm0,6.254v4.079c3.481-.652,6.363-1.3,8.158-1.794V660.95Zm1.958-30.836v2.5H1167.9v-2.5Zm0,5.656v2.5h23.114l-.054-2.5Zm19.85,19.688a17.105,17.105,0,0,0,3.807,6.8,19.86,19.86,0,0,0,3.372-6.8Z" transform="translate(-1131.628 -624.73)"/>
      <path id="Path_43941" data-name="Path 43941" d="M1256.483,632.979h-46.065v-4.514H1230.7v-1.251s-.055-1.74-.164-2.882c.87,0,4.731.163,6.255.381.652.109,1.033.381,1.033.707,0,.381-.544.761-1.74.979-.055.6-.11,1.686-.11,1.686v.38h20.5Zm-2.067,28.334c0,1.251.11,4.025.11,4.895v.218c0,5.547-3.916,6.853-8.811,6.853-.544,0-1.033-.054-1.577-.054-.217,0-.38-.055-.435-.271-.489-1.469-3.263-5.058-3.263-5.058a37.265,37.265,0,0,0,5.493.543c3.372,0,3.535-1.141,3.535-2.718V652.993h-31.652v20.884h-5.168V648.8h41.715Zm-7.451-14.411h-4.732v-.979h-17.675v1.033h-4.786v-11.2h27.192Zm-3.045,20.014h-4.4v-.979H1227.6v3.372h-4.568V655.766h20.884ZM1224.5,639.233v3.154h17.729v-3.154Zm3.046,19.8v3.426h11.964V659.03Z" transform="translate(-1145.593 -624.332)"/>
      <path id="Path_43942" data-name="Path 43942" d="M1311.429,639.136c0,8.158-5.492,18.817-10.713,24.691-1.958,2.175-3.916,3.155-5.765,3.155-4.786,0-9.245-6.363-9.245-12.727,0-10.551,10.279-22.19,23.984-22.19,12.291,0,20.231,8.648,20.231,18.273,0,17.349-20.177,21.7-21.536,21.7a.3.3,0,0,1-.272-.163c-1.2-1.632-5.927-5.057-5.927-5.057,10.55-.762,21.754-5.494,21.754-16.7,0-6.853-5.276-12.4-12.672-13.216A14.724,14.724,0,0,1,1311.429,639.136Zm-20.394,15.009c0,4.188,2.611,6.581,3.753,6.581a2.983,2.983,0,0,0,2.012-1.142c4.3-4.732,8.811-13.6,8.811-20.449a10.494,10.494,0,0,0-.109-1.85C1297.562,639.354,1291.036,647.4,1291.036,654.145Z" transform="translate(-1158.918 -625.703)"/>
      <path id="Path_43943" data-name="Path 43943" d="M1362.39,667.33a.327.327,0,0,1-.217-.054c-1.849-1.143-6.8-2.23-6.8-2.23,8.484-7.778,13-19.416,14.846-29.477,0,0,5.494,1.2,6.58,1.632.545.217.817.489.817.761,0,.327-.49.653-1.577.762C1370.493,659.226,1362.879,667.33,1362.39,667.33Zm24.691-32.413c5.982,7.07,13.759,20.666,15.99,28.879l-5.982,2.61c-.109,0-.164.055-.272.055a.278.278,0,0,1-.272-.218,85.943,85.943,0,0,0-14.738-28.933Zm10.5,4.895a6.418,6.418,0,1,1,6.473-6.417A6.429,6.429,0,0,1,1397.577,639.811Zm0-9.572a3.155,3.155,0,1,0,3.209,3.154A3.157,3.157,0,0,0,1397.577,630.239Z" transform="translate(-1171.257 -624.801)"/>
      <path id="Path_43944" data-name="Path 43944" d="M1474.124,656.646h-41.876v-5.874h41.876Z" transform="translate(-1184.874 -629.018)"/>
      <path id="Path_43945" data-name="Path 43945" d="M1529.149,655.412c-.109.109-.163.163-.218.163-.108,0-.163-.053-.272-.108a68.025,68.025,0,0,0-15.663-8.05V672.6h-6.091V634.2s0-3.861-.163-6.037c6.362.272,8.049.381,8.049,1.142,0,.381-.49.87-1.632,1.088-.163,1.8-.163,3.916-.163,3.916v7.071c6.092,1.958,14.9,5.383,20.232,8.429Z" transform="translate(-1198.07 -625.012)"/>
      <path id="Path_43946" data-name="Path 43946" d="M1601.082,645.631h-16.859c-.652,11.53-5.982,20.831-18.6,25.453-.109,0-.164.054-.272.054a.47.47,0,0,1-.327-.163c-1.414-1.687-5.873-4.514-5.873-4.514,14.52-3.318,18.436-12.237,19.089-20.831H1558.5v-5.656h19.85c0-3.916-.164-9.027-.38-12.074,0,0,5.111.272,6.852.49.653.055,1.033.327,1.033.6,0,.326-.489.707-1.414.925,0,3.426-.109,7.287-.163,10.061h16.8Z" transform="translate(-1207.235 -624.965)"/>
      <path id="Path_43947" data-name="Path 43947" d="M1671.1,656.646h-41.877v-5.874H1671.1Z" transform="translate(-1219.762 -629.018)"/>
      <path id="Path_43948" data-name="Path 43948" d="M1742.18,669.639c-.218.109-.271.163-.381.163s-.163-.054-.381-.216c-7.777-6.255-15.553-15.772-21.645-20.993a4.333,4.333,0,0,0-2.828-1.251,4.553,4.553,0,0,0-3.263,1.794c-2.936,3.317-5.656,8.593-9.028,11.095l-5.656-3.1c-.326-.163-.434-.271-.434-.38,0-.164.163-.272.38-.381,2.991-1.632,6.146-5.33,9.192-9.3,2.991-3.915,5.873-5.22,8.484-5.22,2.828,0,5.33,1.577,7.233,3.154,7.505,6.254,15.283,15.282,24.528,21.21Z" transform="translate(-1232.038 -627.437)"/>
      <path id="Path_43949" data-name="Path 43949" d="M1782.661,680.822a7.886,7.886,0,1,1,7.885-7.886A7.892,7.892,0,0,1,1782.661,680.822Zm-3.916-7.886a3.916,3.916,0,1,0,3.916-3.916A3.888,3.888,0,0,0,1778.745,672.936Z" transform="translate(-1245.546 -631.549)"/>
    </g>
  </g>
</svg>
