<svg xmlns="http://www.w3.org/2000/svg" width="44" height="44" viewBox="0 0 44 44">
  <g id="Group_11059" data-name="Group 11059" transform="translate(1.186 1)">
    <circle id="Ellipse_577" data-name="Ellipse 577" cx="21" cy="21" r="21" transform="translate(-0.186)" fill="none" stroke="#fff" stroke-linecap="round" stroke-linejoin="round" stroke-width="2"/>
    <path id="Path_43697" data-name="Path 43697" d="M317.206-265.371s5.878-.953,9.055-3.337v-3.336" transform="translate(-309.898 296.98)" fill="none" stroke="#fff" stroke-linecap="round" stroke-linejoin="round" stroke-width="2"/>
    <path id="Path_43698" data-name="Path 43698" d="M327.236-269.1s-4.608-1.35-5.322-9.611,3.659-9.77,8.1-9.77,8.5,2.3,7.7,8.976-2.065,8.9-5.4,10.405" transform="translate(-309.204 294.516)" fill="none" stroke="#fff" stroke-linecap="round" stroke-linejoin="round" stroke-width="2"/>
    <path id="Path_43699" data-name="Path 43699" d="M341.111-265.286a22.29,22.29,0,0,1-8.5-3.337v-3.989" transform="translate(-307.589 296.895)" fill="none" stroke="#fff" stroke-linecap="round" stroke-linejoin="round" stroke-width="2"/>
    <path id="Path_43700" data-name="Path 43700" d="M325.081-281.115s5.094.715,7.229-3.018c0,0,2.38,3.286,5,3.074" transform="translate(-308.717 295.168)" fill="none" stroke="#fff" stroke-linecap="round" stroke-linejoin="round" stroke-width="2"/>
  </g>
</svg>
