<?xml version="1.0" encoding="utf-8"?>
<!-- Generator: Adobe Illustrator 26.0.3, SVG Export Plug-In . SVG Version: 6.00 Build 0)  -->
<svg version="1.1" id="Layer_1" xmlns="http://www.w3.org/2000/svg" xmlns:xlink="http://www.w3.org/1999/xlink" x="0px" y="0px"
	 viewBox="0 0 64 64" style="enable-background:new 0 0 64 64;" xml:space="preserve">
<style type="text/css">
	.st0{opacity:0.3;}
	.st1{fill:none;}
	.st2{fill:#005BAA;}
	.st3{fill:none;stroke:#005BAA;stroke-width:4;stroke-linecap:round;}
</style>
<g id="Group_10342" transform="translate(-165.992 18) rotate(90)">
	<g id="Path_4307" transform="translate(-18 -229.992)" class="st0">
		<path class="st1" d="M32,0.5c17.4,0,31.5,14.1,31.5,31.5S49.4,63.5,32,63.5S0.5,49.4,0.5,32S14.6,0.5,32,0.5z"/>
		<path class="st2" d="M32,2.5c-4,0-7.9,0.8-11.5,2.3c-3.5,1.5-6.7,3.6-9.4,6.3c-2.7,2.7-4.8,5.9-6.3,9.4C3.2,24.1,2.5,28,2.5,32
			s0.8,7.9,2.3,11.5c1.5,3.5,3.6,6.7,6.3,9.4c2.7,2.7,5.9,4.8,9.4,6.3c3.6,1.5,7.5,2.3,11.5,2.3s7.9-0.8,11.5-2.3
			c3.5-1.5,6.7-3.6,9.4-6.3c2.7-2.7,4.8-5.9,6.3-9.4c1.5-3.6,2.3-7.5,2.3-11.5s-0.8-7.9-2.3-11.5c-1.5-3.5-3.6-6.7-6.3-9.4
			c-2.7-2.7-5.9-4.8-9.4-6.3C39.9,3.2,36,2.5,32,2.5 M32,0.5c17.4,0,31.5,14.1,31.5,31.5S49.4,63.5,32,63.5S0.5,49.4,0.5,32
			S14.6,0.5,32,0.5z"/>
	</g>
	<line id="Line_789" class="st3" x1="14" y1="-190.1" x2="14" y2="-205.9"/>
	<line id="Line_790" class="st3" x1="21.9" y1="-198" x2="6.1" y2="-198"/>
</g>
</svg>
