<svg xmlns="http://www.w3.org/2000/svg" width="33.728" height="36.434" viewBox="0 0 33.728 36.434">
  <g id="Group_11066" data-name="Group 11066" transform="translate(1.061 0.75)">
    <path id="Path_43720" data-name="Path 43720" d="M378.259-254.234v-18.721h16.184l7.093,6.835v23.405H383.352" transform="translate(-369.619 272.955)" fill="none" stroke="#fff" stroke-linecap="round" stroke-linejoin="round" stroke-width="1.5"/>
    <path id="Path_43721" data-name="Path 43721" d="M387.091-272.955v6.835h7.157" transform="translate(-362.332 272.955)" fill="none" stroke="#fff" stroke-linecap="round" stroke-linejoin="round" stroke-width="1.5"/>
    <circle id="Ellipse_582" data-name="Ellipse 582" cx="2.006" cy="2.006" r="2.006" transform="translate(14.113 2.735)" fill="none" stroke="#fff" stroke-linecap="round" stroke-linejoin="round" stroke-width="1.5"/>
    <path id="Path_43722" data-name="Path 43722" d="M380.473-266a3.339,3.339,0,0,1,3.438-3.232A3.339,3.339,0,0,1,387.349-266" transform="translate(-367.792 276.023)" fill="none" stroke="#fff" stroke-linecap="round" stroke-linejoin="round" stroke-width="1.5"/>
    <path id="Path_43723" data-name="Path 43723" d="M386.137-267.465" transform="translate(-363.119 277.484)" fill="none" stroke="#fff" stroke-linecap="round" stroke-linejoin="round" stroke-width="1.5"/>
    <line id="Line_822" data-name="Line 822" x2="15.668" transform="translate(12.251 12.38)" fill="none" stroke="#fff" stroke-linecap="round" stroke-linejoin="round" stroke-width="1.5"/>
    <line id="Line_823" data-name="Line 823" x2="15.668" transform="translate(12.251 16.571)" fill="none" stroke="#fff" stroke-linecap="round" stroke-linejoin="round" stroke-width="1.5"/>
    <line id="Line_824" data-name="Line 824" x2="8.898" transform="translate(19.021 20.762)" fill="none" stroke="#fff" stroke-linecap="round" stroke-linejoin="round" stroke-width="1.5"/>
    <line id="Line_825" data-name="Line 825" x2="10.961" transform="translate(16.958 24.953)" fill="none" stroke="#fff" stroke-linecap="round" stroke-linejoin="round" stroke-width="1.5"/>
    <path id="Path_43724" data-name="Path 43724" d="M374.761-254.511s1.161-5.223,1.869-7.094,1.613-2.772,4.515-2.192" transform="translate(-372.504 280.367)" fill="none" stroke="#fff" stroke-linecap="round" stroke-linejoin="round" stroke-width="1.5"/>
    <path id="Path_43725" data-name="Path 43725" d="M378.259-260.465s.193,2,1.161,1.8,2.772-2.708,3.867-3.416,3.354-.259,2.451,2.256-3.267,3.1-3.438,3.933-1.141,4.385-4.04,5.933" transform="translate(-369.618 281.679)" fill="none" stroke="#fff" stroke-linecap="round" stroke-linejoin="round" stroke-width="1.5"/>
    <path id="Path_43726" data-name="Path 43726" d="M381.068-249.775l1.805-2-7.655-7.307-1.694,1.569" transform="translate(-373.524 284.4)" fill="none" stroke="#fff" stroke-linecap="round" stroke-linejoin="round" stroke-width="1.5"/>
  </g>
</svg>
