<svg xmlns="http://www.w3.org/2000/svg" width="36.099" height="32.811" viewBox="0 0 36.099 32.811">
  <g id="Group_11065" data-name="Group 11065" transform="translate(0.75 0.75)">
    <path id="Path_43716" data-name="Path 43716" d="M370.349-245.187a15.586,15.586,0,0,1-8.816,2.716,15.655,15.655,0,0,1-15.656-15.654,15.656,15.656,0,0,1,15.656-15.656,15.659,15.659,0,0,1,15.408,12.87" transform="translate(-345.876 273.782)" fill="none" stroke="#fff" stroke-linecap="round" stroke-linejoin="round" stroke-width="1.5"/>
    <path id="Path_43717" data-name="Path 43717" d="M362.83-246.625c-1.34,2.579-3.128,4.154-5.093,4.154-4.148,0-7.51-7.008-7.51-15.654s3.362-15.656,7.51-15.656c3.435,0,6.333,4.812,7.223,11.38" transform="translate(-342.287 273.782)" fill="none" stroke="#fff" stroke-linecap="round" stroke-linejoin="round" stroke-width="1.5"/>
    <path id="Path_43718" data-name="Path 43718" d="M359.461-258.237" transform="translate(-334.669 286.606)" fill="none" stroke="#fff" stroke-linecap="round" stroke-linejoin="round" stroke-width="1.5"/>
    <path id="Path_43719" data-name="Path 43719" d="M360.254-257.67" transform="translate(-334.015 287.074)" fill="none" stroke="#fff" stroke-linecap="round" stroke-linejoin="round" stroke-width="1.5"/>
    <line id="Line_819" data-name="Line 819" x2="28.654" transform="translate(1.372 9.689)" fill="none" stroke="#fff" stroke-linecap="round" stroke-linejoin="round" stroke-width="1.5"/>
    <line id="Line_820" data-name="Line 820" x2="14.948" transform="translate(1.561 21.751)" fill="none" stroke="#fff" stroke-linecap="round" stroke-linejoin="round" stroke-width="1.5"/>
    <circle id="Ellipse_581" data-name="Ellipse 581" cx="6.191" cy="6.191" r="6.191" transform="translate(18.956 13.4)" fill="none" stroke="#fff" stroke-linecap="round" stroke-linejoin="round" stroke-width="1.5"/>
    <line id="Line_821" data-name="Line 821" x1="4.883" y1="4.846" transform="translate(29.404 24.083)" fill="none" stroke="#fff" stroke-linecap="round" stroke-linejoin="round" stroke-width="1.5"/>
  </g>
</svg>
