<svg xmlns="http://www.w3.org/2000/svg" width="117.273" height="16.023" viewBox="0 0 117.273 16.023">
  <g id="logo" transform="translate(-169.84 -356.767)">
    <g id="Group_10233" data-name="Group 10233" transform="translate(226.477 356.767)">
      <path id="Path_4149" data-name="Path 4149" d="M313.846,357.353l-5.429,14.3-5.285-7.091,5.728-7.214h-4.973l-4.661,6.327h-.044v-6.327h-4.13v15.493h4.13v-7.035h.044l4.817,7.035h8.116l1.221-3.3h5.814l1.155,3.3h4.529l-5.971-15.493Zm.488,9.255,2-6.059h.044l1.839,6.059Z" transform="translate(-295.052 -357.088)" fill="#005bac"/>
      <path id="Path_4150" data-name="Path 4150" d="M365.414,361.272c0-1.355,1.732-1.442,2.778-1.442a8.248,8.248,0,0,1,3.435.71l.267-3.192a12.953,12.953,0,0,0-3.993-.582c-3.106,0-6.744,1.02-6.744,4.749,0,5.636,7.32,3.818,7.32,6.705,0,1.243-1.237,1.508-2.55,1.508a9.075,9.075,0,0,1-4.261-1.02l-.36,3.415a16.181,16.181,0,0,0,4.621.665c3.437,0,6.812-1.088,6.812-5.1C372.738,362.094,365.414,363.779,365.414,361.272Z" transform="translate(-331.255 -356.767)" fill="#005bac"/>
      <path id="Path_4151" data-name="Path 4151" d="M394.768,366.409h6.414v-2.926h-6.414v-3.2h6.792v-2.93H390.64v15.493H401.8v-2.929h-7.036Z" transform="translate(-347.402 -357.088)" fill="#005bac"/>
      <rect id="Rectangle_23151" data-name="Rectangle 23151" width="4.122" height="15.493" transform="translate(56.513 0.265)" fill="#005bac"/>
    </g>
    <g id="Group_10240" data-name="Group 10240" transform="translate(169.84 357.032)">
      <g id="Group_10234" data-name="Group 10234" transform="translate(15.841 3.813)">
        <path id="Path_4152" data-name="Path 4152" d="M208.135,377.721a6.525,6.525,0,0,1-3.122-.634l-.089-.048.131-2.2.23.149a5.258,5.258,0,0,0,2.459.76c.321,0,1.922-.068,1.922-1.423,0-.806-.895-1.242-1.931-1.746-1.347-.656-2.874-1.4-2.874-3.219,0-2.206,1.564-3.575,4.08-3.575a8.74,8.74,0,0,1,2.588.442l.126.038-.213,2.171-.218-.135a5.825,5.825,0,0,0-2.07-.541c-.828,0-1.8.311-1.8,1.186,0,.9.883,1.3,1.907,1.77,1.357.617,2.9,1.316,2.9,3.39C212.162,376.6,210.139,377.721,208.135,377.721Z" transform="translate(-204.861 -365.782)" fill="#005bac"/>
      </g>
      <g id="Group_10235" data-name="Group 10235" transform="translate(24.641 3.813)">
        <path id="Path_4153" data-name="Path 4153" d="M228.546,377.721c-2.689,0-4.231-1.319-4.231-3.619,0-3.014,3.342-3.819,5.316-3.819.741,0,1.292,0,2.012.035-.043-1.816-.8-2.561-2.578-2.561a5.047,5.047,0,0,0-3.117,1.092l-.242.2-.137-2.157.084-.05a7.286,7.286,0,0,1,3.735-1.063c3.152,0,4.621,1.511,4.621,4.757v4.581a18.55,18.55,0,0,0,.085,2.162l.024.181h-2.256v-1.2A4.294,4.294,0,0,1,228.546,377.721Zm1.954-5.595c-3.209,0-3.688,1.238-3.688,1.976a1.8,1.8,0,0,0,1.908,1.643,2.639,2.639,0,0,0,2.926-2.756v-.821c-.165,0-.332-.012-.493-.02C230.937,372.137,230.715,372.126,230.5,372.126Z" transform="translate(-224.315 -365.782)" fill="#005bac"/>
      </g>
      <g id="Group_10236" data-name="Group 10236" transform="translate(37.228)">
        <path id="Path_4154" data-name="Path 4154" d="M262.273,372.846H259.9v-5.907c0-2.672-.595-3.7-2.2-3.8-2.785,0-3.2,2.759-3.2,4.4v5.3h-2.365V357.353h2.365v5.384a4.3,4.3,0,0,1,3.449-1.571c2.824,0,4.318,1.7,4.318,4.925Z" transform="translate(-252.142 -357.353)" fill="#005bac"/>
      </g>
      <g id="Group_10237" data-name="Group 10237" transform="translate(50.056)">
        <path id="Path_4155" data-name="Path 4155" d="M283,372.846h-2.369V361.471H283Zm.126-12.864H280.5v-2.629h2.622Z" transform="translate(-280.502 -357.353)" fill="#005bac"/>
      </g>
      <g id="Group_10239" data-name="Group 10239">
        <g id="Group_10238" data-name="Group 10238">
          <path id="Path_4156" data-name="Path 4156" d="M184.708,372.846h-2.532l-1.421-3.835h-6.892l-1.506,3.835H169.84l6.44-15.493h2.4Zm-10.023-5.935h5.292l-2.571-6.935Z" transform="translate(-169.84 -357.353)" fill="#005bac"/>
        </g>
      </g>
    </g>
  </g>
</svg>
