<svg xmlns="http://www.w3.org/2000/svg" width="18" height="21.513" viewBox="0 0 18 21.513">
  <g id="PDF" transform="translate(0.797)">
    <path id="Path_43775" data-name="Path 43775" d="M15.429,0H2.571A2.575,2.575,0,0,0,0,2.571v16.37a2.575,2.575,0,0,0,2.571,2.572h8.915a4.541,4.541,0,0,0,3.542-1.772l1.714-2.086A5.613,5.613,0,0,0,18,13.752V2.571A2.574,2.574,0,0,0,15.429,0m.734,14.141a2.994,2.994,0,0,1-.079.622h-3.4a19.854,19.854,0,0,1,.5,2.449c.078.961.035,1.58-.4,2.016a1.928,1.928,0,0,1-1.292.448H2.571a.736.736,0,0,1-.735-.735V2.571a.735.735,0,0,1,.735-.735H15.429a.735.735,0,0,1,.734.735Z" transform="translate(-0.797 0)" fill="#0f7b40"/>
    <text id="X" transform="translate(8.203 12.762)" fill="#0f7b40" font-size="9" font-family="NotoSans-Bold, Noto Sans" font-weight="700"><tspan x="-3.001" y="0">X</tspan></text>
  </g>
</svg>
