<svg xmlns="http://www.w3.org/2000/svg" width="18.973" height="19.012" viewBox="0 0 18.973 19.012">
  <path id="Path_43739" data-name="Path 43739" d="M7.958.409c.286-.545.755-.545,1.041,0l1.925,3.665a2.675,2.675,0,0,0,1.618,1.213l3.835.774a.588.588,0,0,1,.352,1.057l-2.707,3.036a2.843,2.843,0,0,0-.613,1.948l.5,4.176c.073.611-.32.889-.872.617L9.484,15.147a2.569,2.569,0,0,0-2.009,0L3.924,16.9c-.553.272-.945-.006-.872-.617l.5-4.176a2.837,2.837,0,0,0-.612-1.948L.228,7.118A.588.588,0,0,1,.58,6.061l3.836-.774A2.677,2.677,0,0,0,6.035,4.074Z" transform="translate(1.008 1)" fill="none" stroke="#4dbcef" stroke-linecap="round" stroke-width="2" fill-rule="evenodd"/>
</svg>
