<svg xmlns="http://www.w3.org/2000/svg" width="54" height="64.538" viewBox="0 0 54 64.538">
  <g id="PDF" transform="translate(0.287)">
    <path id="Path_43775" data-name="Path 43775" d="M46.288,0H7.714A7.724,7.724,0,0,0,0,7.714V56.823a7.724,7.724,0,0,0,7.714,7.716H34.458a13.624,13.624,0,0,0,10.627-5.315l5.142-6.259C52.378,50.344,54,47.1,54,41.256V7.714A7.722,7.722,0,0,0,46.288,0m2.2,42.424a8.981,8.981,0,0,1-.236,1.867H38.048a59.563,59.563,0,0,1,1.488,7.347c.233,2.884.105,4.74-1.2,6.047a5.784,5.784,0,0,1-3.876,1.343H7.714a2.207,2.207,0,0,1-2.2-2.206V7.714a2.206,2.206,0,0,1,2.2-2.2H46.288a2.206,2.206,0,0,1,2.2,2.2Z" transform="translate(-0.287 0)" fill="#b30a00"/>
    <text id="PDF-2" data-name="PDF" transform="translate(8.714 34.964)" fill="#b30a00" font-size="18" font-family="NotoSans-Bold, Noto Sans" font-weight="700"><tspan x="0" y="0">PDF</tspan></text>
  </g>
</svg>
