<svg xmlns="http://www.w3.org/2000/svg" width="31.869" height="29" viewBox="0 0 31.869 29">
  <g id="Group_11796" data-name="Group 11796" transform="translate(-1201.5 -1343.5)">
    <path id="Path_43716" data-name="Path 43716" d="M367.761-248.21a13.938,13.938,0,0,1-7.884,2.428,14,14,0,0,1-14-14,14,14,0,0,1,14-14,14,14,0,0,1,13.779,11.509" transform="translate(856.124 1617.782)" fill="rgba(0,0,0,0)" stroke="#f7bc00" stroke-linecap="round" stroke-linejoin="round" stroke-width="1"/>
    <path id="Path_43717" data-name="Path 43717" d="M361.5-249.5c-1.2,2.306-2.8,3.714-4.555,3.714-3.71,0-6.716-6.267-6.716-14s3.006-14,6.716-14c3.071,0,5.663,4.3,6.459,10.177" transform="translate(858.874 1617.782)" fill="rgba(0,0,0,0)" stroke="#f7bc00" stroke-linecap="round" stroke-linejoin="round" stroke-width="1"/>
    <path id="Path_43718" data-name="Path 43718" d="M359.461-258.237" transform="translate(864.71 1627.606)" fill="rgba(0,0,0,0)" stroke="#f7bc00" stroke-linecap="round" stroke-linejoin="round" stroke-width="1"/>
    <path id="Path_43719" data-name="Path 43719" d="M360.254-257.67" transform="translate(865.211 1627.965)" fill="rgba(0,0,0,0)" stroke="#f7bc00" stroke-linecap="round" stroke-linejoin="round" stroke-width="1"/>
    <line id="Line_819" data-name="Line 819" x2="25.624" transform="translate(1203.227 1352.665)" fill="none" stroke="#f7bc00" stroke-linecap="round" stroke-linejoin="round" stroke-width="1"/>
    <line id="Line_820" data-name="Line 820" x2="13.368" transform="translate(1203.396 1363.451)" fill="none" stroke="#f7bc00" stroke-linecap="round" stroke-linejoin="round" stroke-width="1"/>
    <circle id="Ellipse_581" data-name="Ellipse 581" cx="5.536" cy="5.536" r="5.536" transform="translate(1218.951 1355.983)" fill="rgba(0,0,0,0)" stroke="#f7bc00" stroke-linecap="round" stroke-linejoin="round" stroke-width="1"/>
    <line id="Line_821" data-name="Line 821" x1="4.367" y1="4.333" transform="translate(1228.295 1365.536)" fill="none" stroke="#f7bc00" stroke-linecap="round" stroke-linejoin="round" stroke-width="1"/>
  </g>
</svg>
