<?xml version="1.0" encoding="utf-8"?>
<!-- Generator: Adobe Illustrator 26.0.2, SVG Export Plug-In . SVG Version: 6.00 Build 0)  -->
<svg version="1.1" id="Layer_1" xmlns="http://www.w3.org/2000/svg" xmlns:xlink="http://www.w3.org/1999/xlink" x="0px" y="0px"
	 viewBox="0 0 34 34" style="enable-background:new 0 0 34 34;" xml:space="preserve">
<style type="text/css">
	.st0{fill:none;stroke:#005BAA;stroke-linecap:round;stroke-linejoin:round;stroke-miterlimit:10;}
	.st1{fill:#005BAA;stroke:#005BAA;stroke-linecap:round;}
</style>
<g id="icon" transform="translate(-227.464 -4626.475)">
	<g id="Group_11198" transform="translate(-430.571 4980.914)">
		<path id="Path_43736" class="st0" d="M665.2-334.6c-0.6,0.3-1.4,0.2-1.2,1.3s2.8,6.3,7.4,7c0.3-0.2,0.4-0.5,0.5-0.9v-0.5l7.7,0.7
			c0,0,0.2,4.3-3,5s-8,1.2-12.6-3.7s-5.3-8.5-4.9-12s2.7-4.6,5.7-4.2C664.9-342,665.8-334.9,665.2-334.6z"/>
		<path id="Path_43737" class="st0" d="M680.5-353.2c-5.8,0-10.6,4.7-10.6,10.6c0,0,0,0,0,0c0,2.7,1,5.3,2.9,7.2l-0.1,3.3l2.9-1.2
			c1.5,0.8,3.2,1.2,4.9,1.3c5.8,0,10.6-4.7,10.6-10.6C691-348.5,686.3-353.2,680.5-353.2z"/>
		<g id="Group_11197" transform="translate(674.864 -344.002)">
			<circle id="Ellipse_587" class="st1" cx="1.4" cy="1.7" r="1"/>
			<circle id="Ellipse_588" class="st1" cx="5.8" cy="1.7" r="1"/>
			<circle id="Ellipse_589" class="st1" cx="10.2" cy="1.7" r="1"/>
		</g>
	</g>
</g>
</svg>
