<svg xmlns="http://www.w3.org/2000/svg" width="69.099" height="49.112" viewBox="0 0 69.099 49.112">
  <g id="icon" transform="translate(0)">
    <path id="Path_43730" data-name="Path 43730" d="M564.1-329.749s7.817-3.6,9.808-8.157c2.051-4.69.615-7.708-1.8-9.279-2.822-1.84-6.451.411-8.011,2.783-1.558-2.372-5.187-4.623-8.011-2.783-2.411,1.571-3.846,4.589-1.8,9.279C556.281-333.35,564.1-329.749,564.1-329.749Z" transform="translate(-529.55 347.861)" fill="#009fe7"/>
    <path id="Path_43731" data-name="Path 43731" d="M559-299.935h14.464s.723-10.667,0-14.916-8.588-11.571-10.035-14.1-2.35-4.61-4.429-4.249-1.9,3.8-1.356,5.6,3.525,6.509,3.525,6.509a15.743,15.743,0,0,1-9.853-7.955,45,45,0,0,1-4.068-14.825c-.362-2.26-1.085-2.712-1.989-2.893s-3.073-.271-2.983,3.164.478,19.13,4.894,25.159,9.907,8.265,10.811,12.243A40.348,40.348,0,0,1,559-299.935Z" transform="translate(-542.271 349.047)" fill="#009fe7"/>
    <path id="Path_43732" data-name="Path 43732" d="M574.518-299.935H560.054s-.723-10.667,0-14.916,8.588-11.571,10.034-14.1,2.35-4.61,4.429-4.249,1.9,3.8,1.356,5.6-3.526,6.509-3.526,6.509a15.749,15.749,0,0,0,9.856-7.955,44.982,44.982,0,0,0,4.068-14.825c.362-2.26,1.085-2.712,1.989-2.893s3.074-.271,2.983,3.164-.478,19.13-4.894,25.159-9.909,8.265-10.813,12.243A40.675,40.675,0,0,0,574.518-299.935Z" transform="translate(-522.148 349.047)" fill="#009fe7"/>
  </g>
</svg>
