<svg xmlns="http://www.w3.org/2000/svg" width="60.372" height="59.663" viewBox="0 0 60.372 59.663">
  <g id="icon" transform="translate(0)">
    <g id="Group_11072" data-name="Group 11072" transform="translate(0.001 0)">
      <path id="Path_43727" data-name="Path 43727" d="M562.761-370.832a6.711,6.711,0,0,0,6.709-6.709,6.711,6.711,0,0,0-6.709-6.709,6.711,6.711,0,0,0-6.709,6.709A6.711,6.711,0,0,0,562.761-370.832Z" transform="translate(-535.581 397.324)" fill="#005baa"/>
      <path id="Path_43728" data-name="Path 43728" d="M604.629-338.924l-10.854-10.854a26.248,26.248,0,0,0,4.542-14.794,26.374,26.374,0,0,0-26.373-26.373,26.374,26.374,0,0,0-26.375,26.373A26.376,26.376,0,0,0,571.943-338.2a26.229,26.229,0,0,0,15.6-5.147L598.3-332.594a4.477,4.477,0,0,0,6.33,0A4.477,4.477,0,0,0,604.629-338.924Zm-32.686-5.434a20.216,20.216,0,0,1-20.217-20.215,20.216,20.216,0,0,1,20.217-20.215,20.216,20.216,0,0,1,20.215,20.215A20.216,20.216,0,0,1,571.943-344.358Z" transform="translate(-545.568 390.946)" fill="#005baa"/>
      <path id="Path_43729" data-name="Path 43729" d="M574.065-375.865h-5.211l-3.069,4.918-3.069-4.918H557.5c-3.745,0-4.626,2.275-4.626,4.331v5.432s6.215,4.844,12.907,4.844,12.907-4.844,12.907-4.844v-5.432C578.691-373.59,577.81-375.865,574.065-375.865Z" transform="translate(-538.605 405.312)" fill="#005baa"/>
    </g>
  </g>
</svg>
