<svg xmlns="http://www.w3.org/2000/svg" width="104.566" height="398.337" viewBox="0 0 104.566 398.337">
  <g id="Group_10171" data-name="Group 10171" transform="translate(-993.926 -182.969)">
    <g id="Group_10170" data-name="Group 10170" transform="translate(0 20)">
      <g id="Group_10169" data-name="Group 10169">
        <path id="Path_4096" data-name="Path 4096" d="M1097.2,177.511h-16.558v14.47a20.14,20.14,0,0,0,6.443-3.312,18.219,18.219,0,0,1-3.564-6.587H1081.9V179.49h10.763c.216,0,.323-.252.539-.252a7.414,7.414,0,0,1,2.376,1.8c0,.252-.36.4-.756.433a18.938,18.938,0,0,1-3.491,7.018,18.849,18.849,0,0,0,7.018,2.772,19.311,19.311,0,0,0-3.311,2.664c-.036.072-.072.072-.144.072a17.06,17.06,0,0,1-5.651-3.24,16.553,16.553,0,0,1-5.724,3.563.186.186,0,0,1-.143-.071,13.25,13.25,0,0,0-2.736-1.944v2.088h-3.06v-4.608a98.313,98.313,0,0,1-10.618,2.376v.18c0,.648-.216.935-.432.935a.582.582,0,0,1-.433-.359c-.5-.972-1.367-3.384-1.367-3.384,1.512-.143,2.987-.359,4.356-.576V177.511h-4.033V174.7H1097.2Zm-5.111-3.924h-3.312V172.9h-15.3v.792h-3.312V162.969h21.922Zm-19.906,3.924v1.943h5.4v-1.943Zm0,4.067v1.98h5.4v-1.98Zm0,4.14v2.7c2.3-.432,4.211-.863,5.4-1.188v-1.511Zm1.3-20.409v1.655h15.262v-1.655Zm0,3.743v1.656h15.3l-.036-1.656Zm13.138,13.03a11.333,11.333,0,0,0,2.519,4.5,13.17,13.17,0,0,0,2.233-4.5Z" fill="#202020"/>
        <path id="Path_4097" data-name="Path 4097" d="M1095.144,211.244h-12.383v2.088h11.267v2.483h-11.267v2.268h13.859v2.7h-13.859v3.06h3.024a15.2,15.2,0,0,0,1.332-2.808,26.518,26.518,0,0,1,3.672.828c.359.144.54.287.54.468,0,.252-.433.5-1.153.5h-.107c-.036.071-.288.468-.649,1.008h7.2v2.735h-31.029v-2.735h7.236c-.684-1.044-1.368-1.872-1.476-2.016l3.276-.864s1.007,1.4,1.872,2.88h2.843v-3.06h-13.715v-2.7h13.715v-2.268h-11.159v-2.483h11.159v-2.088h-12.274V208.58h7.631a24.845,24.845,0,0,0-2.052-2.735l3.312-.936s1.332,1.836,2.411,3.671h5.435a17.855,17.855,0,0,0,2.088-3.815s2.412.755,3.6,1.224c.395.144.54.323.54.5,0,.216-.288.4-.828.4a1.707,1.707,0,0,1-.432-.037c-.072.109-.54.865-1.152,1.728h7.523Zm-3.023,26.1-3.456.036v-1.4h-15.119v1.547h-3.419v-9.178l21.994.036Zm-18.575-6.444v2.376h15.119V230.9Z" fill="#202020"/>
        <path id="Path_4098" data-name="Path 4098" d="M1087.189,255.2c-3.168.648-5.939,1.152-8.243,1.476a38.4,38.4,0,0,1-2.951,4.319c-.073.072-.073.108-.036.108a.309.309,0,0,0,.215-.108,7.139,7.139,0,0,1,4.428-1.476c2.052.037,3.527,1.368,4.211,3.528,3.348-1.476,6.623-2.628,8.495-3.42l2.556,3.1a.479.479,0,0,1,.108.252c0,.144-.217.18-.469.215a44.151,44.151,0,0,0-10.33,3.277c-.072,1.619-.215,4.571-.252,6.047l-3.527.324c.035-1.189.144-3.132.216-4.68-1.729.972-4.536,2.772-4.536,4.823,0,.865.4,2.953,5.687,2.953a34.383,34.383,0,0,0,8.6-1.548,33.753,33.753,0,0,0-.685,3.923c0,.18-.071.215-.216.252a33.158,33.158,0,0,1-7.558.9c-5.58,0-9.323-2.34-9.323-6.264,0-3.383,3.311-6.191,8.063-8.675-.181-1.727-.864-2.411-2.232-2.411-2.448,0-6.047,3.816-7.991,6.875l-3.456-1.116c-.179-.036-.252-.107-.252-.18a.482.482,0,0,1,.109-.252c.935-1.044,2.3-2.484,3.095-3.527a64.729,64.729,0,0,0,4.32-6.767c-.469.036-.9.072-1.3.072-.4.036-.792.036-1.152.036a7.863,7.863,0,0,1-3.492-.649l-.36-3.311v-.108c0-.108.036-.144.108-.144a.906.906,0,0,1,.252.072,10.465,10.465,0,0,0,4.608.936c.756,0,1.655-.072,2.7-.18a35.6,35.6,0,0,0,1.512-4.68s4.5.54,4.5,1.224c0,.288-.433.5-1.189.54-.252.612-.647,1.512-1.044,2.376,2.088-.36,4.392-.9,6.912-1.584Z" fill="#202020"/>
        <path id="Path_4099" data-name="Path 4099" d="M1093.344,305.167h-3.42v-.973h-1.475a25.443,25.443,0,0,0,10.043,13.751s-2.952.972-3.852,1.871a.275.275,0,0,1-.144.073,31.027,31.027,0,0,1-9.467-15.7h-11.194c-.252,5.688-1.4,11.7-5.58,16.307-.072.071-.108.107-.179.107a.134.134,0,0,1-.109-.036,14.415,14.415,0,0,0-3.887-1.187c5.219-5.075,6.371-9.791,6.371-17.89,0-2.412-.144-7.163-.18-8.351h23.073ZM1087.8,324.1a62.216,62.216,0,0,0-14.831-6.12l2.124-2.807a82.817,82.817,0,0,1,14.723,5.722Zm-14.039-27.861.073,2.627c.036.72.036,1.441.036,2.2h16.053V296.24Zm11.807,18.142a54.985,54.985,0,0,0-10.654-4.284l1.872-2.736a75.316,75.316,0,0,1,10.726,3.96Z" fill="#202020"/>
        <path id="Path_4100" data-name="Path 4100" d="M1085.569,366.293c-.071,0-.108.035-.144.035s-.072-.035-.144-.143c-2.7-4.716-7.307-9.036-11.338-12.995a4.642,4.642,0,0,1-1.584-3.347,5.346,5.346,0,0,1,1.764-3.708c3.455-3.491,8.243-6.551,11.05-10.511.073-.107.144-.144.18-.144.145,0,3.816,3.132,3.816,3.924,0,.18-.144.288-.36.288a1.872,1.872,0,0,1-.756-.216c-2.988,2.591-7.775,5.795-10.367,8.279a3.288,3.288,0,0,0-1.3,2.16c0,.647.468,1.3,1.3,2.052,3.743,3.275,9.791,8.53,12.238,12.67Z" fill="#202020"/>
        <path id="Path_4101" data-name="Path 4101" d="M1075.743,398.8c0,2.988.252,6.227,4.787,6.227,6.011,0,11.194-6.155,12.85-8.566a31.233,31.233,0,0,0,1.44,4.5.507.507,0,0,1,.072.216.324.324,0,0,1-.108.179c-2.016,2.412-7.74,7.524-14.4,7.524-8.35,0-8.386-6.947-8.386-10.187,0-4.716.648-9.934.648-15.262,0-.936-.036-1.908-.072-2.843,1.044.035,3.708.252,4.679.431.5.073.72.289.72.5,0,.325-.468.648-1.152.792C1076.57,388.039,1075.743,394.519,1075.743,398.8Z" fill="#202020"/>
        <path id="Path_4102" data-name="Path 4102" d="M1094.928,430.627a35.159,35.159,0,0,0-7.667-7.163l2.52-2.34a41.307,41.307,0,0,1,8.135,6.336Z" fill="#202020"/>
        <path id="Path_4103" data-name="Path 4103" d="M1026.394,177.511h-16.558v14.47a20.138,20.138,0,0,0,6.443-3.312,18.218,18.218,0,0,1-3.564-6.587H1011.1V179.49h10.763c.216,0,.323-.252.539-.252a7.416,7.416,0,0,1,2.376,1.8c0,.252-.359.4-.756.433a18.939,18.939,0,0,1-3.491,7.018,18.849,18.849,0,0,0,7.018,2.772,19.349,19.349,0,0,0-3.311,2.664c-.036.072-.071.072-.144.072a17.059,17.059,0,0,1-5.651-3.24,16.544,16.544,0,0,1-5.724,3.563.186.186,0,0,1-.143-.071,13.251,13.251,0,0,0-2.736-1.944v2.088h-3.06v-4.608a98.322,98.322,0,0,1-10.618,2.376v.18c0,.648-.216.935-.432.935a.581.581,0,0,1-.432-.359c-.5-.972-1.368-3.384-1.368-3.384,1.512-.143,2.988-.359,4.356-.576V177.511H994.25V174.7h32.144Zm-5.111-3.924h-3.312V172.9h-15.3v.792h-3.311V162.969h21.922Zm-19.906,3.924v1.943h5.4v-1.943Zm0,4.067v1.98h5.4v-1.98Zm0,4.14v2.7c2.3-.432,4.211-.863,5.4-1.188v-1.511Zm1.295-20.409v1.655h15.263v-1.655Zm0,3.743v1.656h15.3l-.036-1.656Zm13.139,13.03a11.325,11.325,0,0,0,2.52,4.5,13.165,13.165,0,0,0,2.232-4.5Z" fill="#202020"/>
        <path id="Path_4104" data-name="Path 4104" d="M1025.566,210.668H995.078v-2.987H1008.5v-.829s-.036-1.151-.108-1.907c.576,0,3.132.108,4.14.252.431.072.683.252.683.468,0,.252-.359.5-1.151.647-.036.4-.072,1.117-.072,1.117v.252h13.57Zm-1.368,18.754c0,.828.072,2.664.072,3.239v.145c0,3.671-2.592,4.535-5.831,4.535-.36,0-.684-.036-1.044-.036-.143,0-.252-.036-.288-.18a20.112,20.112,0,0,0-2.159-3.348,24.642,24.642,0,0,0,3.635.361c2.232,0,2.339-.756,2.339-1.8v-8.423H999.973v13.822h-3.42V221.143h27.61Zm-4.931-9.539h-3.132v-.648h-11.7v.684h-3.168V212.5h18Zm-2.015,13.247h-2.917v-.649h-7.882v2.232h-3.024V225.75h13.823ZM1004.4,214.808V216.9h11.734v-2.087Zm2.016,13.1v2.268h7.918V227.91Z" fill="#202020"/>
        <path id="Path_4105" data-name="Path 4105" d="M1012.788,257.035c0,5.4-3.636,12.454-7.091,16.342a5.288,5.288,0,0,1-3.816,2.088c-3.168,0-6.119-4.212-6.119-8.423,0-6.983,6.8-14.687,15.873-14.687,8.136,0,13.391,5.724,13.391,12.1,0,11.483-13.355,14.362-14.254,14.362a.2.2,0,0,1-.18-.108,27.871,27.871,0,0,0-3.923-3.348c6.983-.5,14.4-3.634,14.4-11.049,0-4.537-3.492-8.207-8.388-8.747A9.666,9.666,0,0,1,1012.788,257.035Zm-13.5,9.935c0,2.771,1.727,4.355,2.483,4.355a1.977,1.977,0,0,0,1.332-.756c2.844-3.132,5.831-9,5.831-13.534a6.989,6.989,0,0,0-.072-1.224C1003.609,257.179,999.29,262.507,999.29,266.97Z" fill="#202020"/>
        <path id="Path_4106" data-name="Path 4106" d="M998.75,319.493a.218.218,0,0,1-.145-.036,21.17,21.17,0,0,0-4.5-1.476c5.615-5.147,8.6-12.85,9.827-19.509,0,0,3.635.792,4.356,1.08.359.144.539.324.539.5,0,.215-.324.431-1.043.5C1004.113,314.13,999.074,319.493,998.75,319.493Zm16.341-21.453c3.96,4.68,9.107,13.679,10.583,19.113l-3.96,1.729c-.072,0-.107.035-.179.035a.181.181,0,0,1-.18-.144,56.882,56.882,0,0,0-9.755-19.149Zm6.948,3.239a4.247,4.247,0,1,1,4.283-4.247A4.255,4.255,0,0,1,1022.039,301.279Zm0-6.335a2.088,2.088,0,1,0,2.124,2.088A2.089,2.089,0,0,0,1022.039,294.944Z" fill="#202020"/>
        <path id="Path_4107" data-name="Path 4107" d="M1012.32,364.925h-4.031V340.88s0-1.98-.145-3.888c4.968.18,5.363.288,5.363.756,0,.252-.324.5-1.08.684a19.258,19.258,0,0,0-.107,2.376Z" fill="#202020"/>
        <path id="Path_4108" data-name="Path 4108" d="M1020.094,397.866c-.071.072-.107.109-.143.109-.073,0-.109-.037-.18-.073a45,45,0,0,0-10.367-5.327v16.666h-4.031V383.828s0-2.556-.109-3.995c4.212.18,5.328.252,5.328.756,0,.252-.324.575-1.08.72-.108,1.187-.108,2.591-.108,2.591v4.679a81.859,81.859,0,0,1,13.39,5.58Z" fill="#202020"/>
        <path id="Path_4109" data-name="Path 4109" d="M1024.919,434.623h-11.16c-.431,7.631-3.959,13.786-12.31,16.846-.072,0-.108.036-.18.036a.313.313,0,0,1-.216-.108,24.347,24.347,0,0,0-3.887-2.988c9.61-2.2,12.2-8.1,12.634-13.786H996.734V430.88h13.138c0-2.592-.108-5.976-.252-7.991,0,0,3.383.179,4.536.324.431.036.683.216.683.395,0,.216-.324.468-.935.613,0,2.267-.072,4.823-.109,6.659h11.124Z" fill="#202020"/>
        <path id="Path_4110" data-name="Path 4110" d="M1012.32,494.524h-4.031V470.479s0-1.979-.145-3.886c4.968.179,5.363.287,5.363.756,0,.252-.324.5-1.08.683a19.258,19.258,0,0,0-.107,2.376Z" fill="#202020"/>
        <path id="Path_4111" data-name="Path 4111" d="M1023.407,535.276c-.145.073-.181.109-.253.109s-.108-.036-.252-.145c-5.147-4.138-10.294-10.438-14.326-13.893a2.863,2.863,0,0,0-1.871-.828,3.014,3.014,0,0,0-2.161,1.187c-1.943,2.2-3.743,5.688-5.974,7.344L994.826,527c-.216-.108-.288-.181-.288-.252,0-.108.108-.181.252-.252,1.98-1.08,4.067-3.528,6.084-6.155,1.979-2.592,3.886-3.456,5.615-3.456a7.791,7.791,0,0,1,4.787,2.088c4.967,4.139,10.114,10.114,16.233,14.038Z" fill="#202020"/>
        <path id="Path_4112" data-name="Path 4112" d="M1021.247,561.306a5.22,5.22,0,1,1,5.219-5.219A5.223,5.223,0,0,1,1021.247,561.306Zm-2.592-5.219a2.591,2.591,0,1,0,2.592-2.592A2.582,2.582,0,0,0,1018.655,556.087Z" fill="#202020"/>
      </g>
    </g>
  </g>
</svg>
