<svg xmlns="http://www.w3.org/2000/svg" width="329.776" height="86.044" viewBox="0 0 329.776 86.044">
  <path id="MENU" d="M301.3,1.64a35.943,35.943,0,0,1-13.758-2.4A22.21,22.21,0,0,1,278.1-8.023,33.475,33.475,0,0,1,272.717-19.8a64.83,64.83,0,0,1-1.783-16V-83.79a.5.5,0,0,1,.5-.5H284.2a.5.5,0,0,1,.5.5v48.222c0,8.747,1.312,15.075,3.9,18.81,2.549,3.677,6.821,5.542,12.7,5.542s10.132-1.827,12.643-5.429c2.55-3.659,3.843-10.026,3.843-18.923V-83.79a.5.5,0,0,1,.5-.5H331.17a.5.5,0,0,1,.5.5V-35.8a61.139,61.139,0,0,1-1.884,15.935A32.99,32.99,0,0,1,324.1-8.07,23.807,23.807,0,0,1,314.565-.78,33.856,33.856,0,0,1,301.3,1.64ZM271.934-83.29V-35.8c0,11.842,2.345,20.985,6.969,27.175C283.493-2.476,291.029.64,301.3.64c9.748,0,17.152-3.138,22.008-9.328,4.884-6.226,7.36-15.347,7.36-27.108V-83.29H318.788v47.722a59.444,59.444,0,0,1-.993,11.686,21.093,21.093,0,0,1-3.029,7.809,12.619,12.619,0,0,1-5.442,4.405,20.227,20.227,0,0,1-8.022,1.452,19.986,19.986,0,0,1-8.039-1.481,12.845,12.845,0,0,1-5.482-4.491,21.484,21.484,0,0,1-3.071-7.835A57.5,57.5,0,0,1,283.7-35.568V-83.29ZM245.556.5h-1.71a.5.5,0,0,1-.371-.165l-48.1-53.243.29,7.745q0,.009,0,.019V0a.5.5,0,0,1-.5.5H182.4a.5.5,0,0,1-.5-.5V-83.9a.5.5,0,0,1,.5-.5H184a.5.5,0,0,1,.372.166l48.309,53.9-.389-8.171c0-.008,0-.016,0-.024V-83.79a.5.5,0,0,1,.5-.5h12.768a.5.5,0,0,1,.5.5V0A.5.5,0,0,1,245.556.5Zm-1.488-1h.988V-83.29H233.288v44.746l.455,9.564a.5.5,0,0,1-.31.486.5.5,0,0,1-.562-.129L183.773-83.4H182.9V-.5h11.768V-45.134l-.342-9.111a.5.5,0,0,1,.311-.482.5.5,0,0,1,.559.128ZM160.4.5h-40.47a.5.5,0,0,1-.5-.5V-83.79a.5.5,0,0,1,.5-.5h36.708a.5.5,0,0,1,.5.5v11.172a.5.5,0,0,1-.5.5H133.082v22.142h18.88a.5.5,0,0,1,.5.5v11.4a.5.5,0,0,1-.5.5h-18.88v25.79H160.4a.5.5,0,0,1,.5.5V0A.5.5,0,0,1,160.4.5Zm-39.97-1H159.9V-10.786H132.582a.5.5,0,0,1-.5-.5v-26.79a.5.5,0,0,1,.5-.5h18.88v-10.4h-18.88a.5.5,0,0,1-.5-.5V-72.618a.5.5,0,0,1,.5-.5h23.554V-83.29H120.428ZM99.636.5H87.1a.5.5,0,0,1-.489-.395L78.171-39,76.012-49.2l-3.954,10.28a.5.5,0,0,1-.023.051L51.744.23A.5.5,0,0,1,51.3.5h-.684a.5.5,0,0,1-.444-.271l-20.178-39.1-.013-.027L25.373-49.318,23.29-39,15.538.1a.5.5,0,0,1-.49.4H2.394A.5.5,0,0,1,2.006.316.5.5,0,0,1,1.9-.1l17.328-83.79a.5.5,0,0,1,.49-.4H21.09a.5.5,0,0,1,.446.273L44.564-38.759l.01.021,6.384,14.152,6.384-14.152.008-.018L79.923-84.013a.5.5,0,0,1,.447-.277h1.254a.5.5,0,0,1,.489.395L100.125-.105a.5.5,0,0,1-.1.419A.5.5,0,0,1,99.636.5ZM87.5-.5H99.017L81.22-83.29h-.541L58.249-38.317,51.414-23.164a.5.5,0,0,1-.456.294.5.5,0,0,1-.456-.294L43.667-38.316,20.783-83.29h-.654L3.008-.5H14.637L22.31-39.2,24.7-51.057a.5.5,0,0,1,.436-.4.5.5,0,0,1,.511.295l5.238,11.842L50.921-.5H51L71.135-39.307l4.55-11.83a.5.5,0,0,1,.506-.319.5.5,0,0,1,.45.395l2.508,11.856Z" transform="translate(-1.894 84.404)" fill="#005baa" opacity="0.2"/>
</svg>
